inDegrees=yes
name=ik_S42_A07_T01
DataType=double
version=3
OpenSimVersion=4.3-2021-08-27-4bc7ad9
endheader
time	pelvis_tilt	pelvis_list	pelvis_rotation	pelvis_tx	pelvis_ty	pelvis_tz	hip_flexion_r	hip_adduction_r	hip_rotation_r	knee_angle_r	knee_angle_r_beta	ankle_angle_r	subtalar_angle_r	mtp_angle_r	hip_flexion_l	hip_adduction_l	hip_rotation_l	knee_angle_l	knee_angle_l_beta	ankle_angle_l	subtalar_angle_l	mtp_angle_l	lumbar_extension	lumbar_bending	lumbar_rotation	arm_flex_r	arm_add_r	arm_rot_r	elbow_flex_r	pro_sup_r	wrist_flex_r	wrist_dev_r	arm_flex_l	arm_add_l	arm_rot_l	elbow_flex_l	pro_sup_l	wrist_flex_l	wrist_dev_l
6.659999999999946	-6.762190697516896	-3.944023603460569	26.38511892735272	0	0.9399999999999999	0	34.03529118826498	-10.13921706087368	-9.706704141931329	34.87391736021554	0.6086646810041705	0	0	0	34.03529118826498	-10.13921706087368	-9.706704141931329	34.87391736021554	0.6086646810041705	0	0	0	-6.020666242205058	-0.8484043836862464	2.968873178518494	80.83521793720442	-5.657771472403613	2.616785141631451	78.48717262774986	88.95523179681732	0	0	29.69272922002917	-1.689129060515806	9.997323005621571	48.57578381141774	116.4100155490474	0	0
6.679999999999946	-6.742559317027911	-3.930882737344986	26.27882069907289	0	0.9399999999999999	0	34.04215048542446	-10.13892224298422	-9.70710396810216	34.88310891135029	0.6088251038348373	0	0	0	34.04215048542446	-10.13892224298422	-9.70710396810216	34.88310891135029	0.6088251038348373	0	0	0	-5.993117696870176	-0.8570758767541383	3.069027361349927	80.86205333187795	-6.058401081558293	2.550170634870417	82.5914755337441	89.53421126926433	0	0	29.65306144997858	-1.722265665938693	10.05237356225191	48.57705693911243	116.3444454699153	0	0
6.699999999999945	-6.742735238959971	-3.924647051980855	26.26463368825969	0	0.9399999999999999	0	34.04478567056599	-10.13880847462066	-9.707258046454863	34.8866239320411	0.6088864525191677	0	0	0	34.04478567056599	-10.13880847462066	-9.707258046454863	34.8866239320411	0.6088864525191677	0	0	0	-5.988137982409902	-0.8572636727376982	3.112763788978901	81.16968321095511	-6.250336685280085	2.492423684881685	82.44325810337588	89.2972884517267	0	0	29.70591441735377	-1.688919316724626	10.1408886929883	48.53800554853106	116.3764986960836	0	0
6.719999999999945	-6.724506950068116	-3.907829373806776	26.11246906538253	0	0.9399999999999999	0	34.05276809446468	-10.13846364487426	-9.707725050816482	34.89725629178876	0.6090720222040208	0	0	0	34.05276809446468	-10.13846364487426	-9.707725050816482	34.89725629178876	0.6090720222040208	0	0	0	-5.955228484367976	-0.8745520109610756	3.275919329631121	81.53154096601018	-6.798786477223214	2.287830559677044	86.13711630202536	90.53788603017189	0	0	29.70602671539655	-1.667702145086779	10.15269197534857	48.47055171652389	116.3753678416213	0	0
6.739999999999944	-6.727728329892502	-3.899428565774829	26.09880858790201	0	0.9399999999999999	0	34.05519886835341	-10.13836121487407	-9.707865014000726	34.90055846230269	0.6091296559519512	6.687086526346051e-36	0	0	34.05519886835341	-10.13836121487407	-9.707865014000726	34.90055846230269	0.6091296559519512	6.687086526346051e-36	0	0	-5.952360496213737	-0.8708295274708387	3.313737640691224	81.57709404264284	-6.893980126534707	2.26777717062739	86.88018846468414	90.99713956359727	0	0	29.7595703964888	-1.62968024298116	10.16169513084006	48.42426790906448	116.3691487684237	0	0
6.759999999999944	-6.680688724301233	-3.874514400648322	26.02971290369319	0	0.9399999999999999	0	34.06165665224135	-10.13808465115078	-9.708240819179359	34.90920995357887	0.6092806529599281	0	0	0	34.06165665224135	-10.13808465115078	-9.708240819179359	34.90920995357887	0.6092806529599281	0	0	0	-5.893862556340483	-0.8824614313676301	3.40671414468933	81.47605521241287	-7.091135773835156	2.150675407783553	88.76878914355549	91.90082904933467	0	0	29.64255725548872	-1.626903939295037	10.17283619302084	48.39384051177878	116.3304361018704	0	0
6.779999999999943	-6.674813581597012	-3.872568372458871	25.96414111711874	0	0.9399999999999999	0	34.06803283732528	-10.13781186989157	-9.708611707441472	34.91775046136644	0.6094297129406134	0	0	0	34.06803283732528	-10.13781186989157	-9.708611707441472	34.91775046136644	0.6094297129406134	0	0	0	-5.884256178344454	-0.8926755712664144	3.473619651113535	81.50061923315391	-7.245518454968153	2.064048046611133	90.46434758330776	92.73669617132839	0	0	29.67201053044137	-1.620200214175175	10.14422588913598	48.35988504636374	116.3212825289507	0	0
6.799999999999943	-6.639145264402917	-3.855712817610929	25.93159452193047	0	0.9399999999999999	0	34.07288005856738	-10.1376056424107	-9.708892702333637	34.92426723122748	0.6095434520312834	0	0	0	34.07288005856738	-10.1376056424107	-9.708892702333637	34.92426723122748	0.6095434520312834	0	0	0	-5.841219067490203	-0.902078676269372	3.539611403641667	81.45068625130482	-7.407512016540755	1.958932374858167	92.05961206969879	93.4594326488114	0	0	29.58360053590695	-1.622834537688998	10.17203946292366	48.35272987727622	116.2941305442705	0	0
6.819999999999943	-6.630913468422259	-3.843515130215788	25.80463798947279	0	0.9399999999999999	0	34.07855703810075	-10.13736119513193	-9.709224448932051	34.9318155993663	0.6096751959084583	0	0	0	34.07855703810075	-10.13736119513193	-9.709224448932051	34.9318155993663	0.6096751959084583	0	0	0	-5.817601415067495	-0.9208783322982504	3.717874440936769	83.08377956023681	-8.574037480873999	1.440598484572251	92.89594877410205	92.48924129725333	0	0	29.61883854663308	-1.584286319964394	10.12839084242826	48.31357892758056	116.3169469192211	0	0
